# xmcd CD database file generated by MAGIX-FreeDB-MP3_deluxe_MX v3.0beta1
#
# Track frame offsets:
#	150
#	15734
#	62852
#
# Disc length: 1139
#
# Revision: 1
# Processed by: cddbd v1.5.2PL0 Copyright (c) Steve Scherf et al.
# Submitted via: MAGIX-FreeDB-MP3_deluxe_MX v3.0beta1
#
DISCID=20047103
DTITLE=Holiday  Park - Expedition GeForce
DYEAR=2003
DGENRE=Park
TTITLE0=Expedition GeForce - Compact Version
TTITLE1=Expedition GeForce - Adventure Version
TTITLE2=Expedition GeForce - Technical Mix
EXTD=
EXTT0=
EXTT1=
EXTT2=
PLAYORDER=
